<?xml version="1.0" standalone="no"?>
<!DOCTYPE svg PUBLIC "-//W3C//DTD SVG 20010904//EN"
 "http://www.w3.org/TR/2001/REC-SVG-20010904/DTD/svg10.dtd">
<svg version="1.0" xmlns="http://www.w3.org/2000/svg"
 width="70.000000pt" height="70.000000pt" viewBox="0 0 70.000000 70.000000"
 preserveAspectRatio="xMidYMid meet">
<metadata>
Created by potrace 1.11, written by Peter Selinger 2001-2013
</metadata>
<g transform="translate(0.000000,70.000000) scale(0.100000,-0.100000)"
fill="#000000" stroke="none">
<path d="M0 350 l0 -350 350 0 350 0 0 350 0 350 -350 0 -350 0 0 -350z m288
257 c25 -27 33 -64 20 -91 -7 -12 -7 -16 0 -12 7 4 9 -16 6 -55 -3 -57 -2 -60
14 -48 61 49 77 107 42 152 l-19 24 29 28 c26 25 31 26 47 14 41 -32 42 -39
43 -240 0 -157 3 -199 14 -208 11 -9 19 -9 35 1 15 9 23 10 32 1 8 -8 -2 -23
-35 -57 -26 -25 -50 -46 -54 -46 -5 0 -23 16 -42 35 l-33 34 0 111 0 111 -43
-42 c-25 -25 -40 -47 -36 -53 9 -14 8 -145 -2 -168 -11 -25 -37 -30 -57 -12
-17 16 -19 35 -19 236 0 120 -3 218 -7 218 -4 0 -17 -10 -30 -21 -19 -18 -25
-20 -38 -9 -13 11 -8 19 37 66 29 29 58 54 64 54 6 0 20 -10 32 -23z"/>
</g>
</svg>
